<?xml version="1.0" standalone="no"?><!DOCTYPE svg PUBLIC "-//W3C//DTD SVG 1.1//EN" "http://www.w3.org/Graphics/SVG/1.1/DTD/svg11.dtd"><svg t="1594663458448" class="icon" viewBox="0 0 1024 1024" version="1.1" xmlns="http://www.w3.org/2000/svg" p-id="5510" xmlns:xlink="http://www.w3.org/1999/xlink" width="500" height="500"><defs><style type="text/css"></style></defs><path d="M848.020811 0H284.814986C207.97712 0 150.42154 57.613835 150.42154 134.393446v19.22403C86.399694 166.375242 41.601879 223.989077 41.601879 294.418933a136.665377 136.665377 0 0 0 51.205825 108.761406 141.209239 141.209239 0 0 0 0 217.639322A136.665377 136.665377 0 0 0 41.601879 729.581067c0 70.429856 44.797815 121.635681 108.819661 140.801457v19.22403a135.150757 135.150757 0 0 0 134.393446 134.393446h563.205825a135.209011 135.209011 0 0 0 134.393447-134.393446V134.393446C976.006248 57.613835 918.392412 0 848.020811 0zM150.42154 582.546365a77.711685 77.711685 0 0 1 0-140.801457z m0-358.440778v140.684947c-25.63204-12.81602-44.739561-44.797815-44.739561-70.371601s19.107521-57.613835 44.739561-70.429856zM105.681979 729.581067a78.643759 78.643759 0 0 1 44.797815-70.371601v140.801457A78.643759 78.643759 0 0 1 105.681979 729.581067z m806.360678 160.025487a64.0801 64.0801 0 0 1-64.0801 64.0801H284.814986a64.0801 64.0801 0 0 1-64.0801-64.0801V134.393446a64.0801 64.0801 0 0 1 64.0801-64.0801h563.205825a64.0801 64.0801 0 0 1 64.080101 64.0801z" fill="#333333" p-id="5511"></path><path d="M335.146992 491.552623h491.552623v68.216179H335.146992z m0 252.533849h491.552623v68.274434H335.146992z" fill="#333333" p-id="5512"></path><path d="M335.146992 211.639094h491.552623v68.274434H335.146992z" fill="#00B65F" p-id="5513"></path></svg>