<?xml version="1.0" standalone="no"?><!DOCTYPE svg PUBLIC "-//W3C//DTD SVG 1.1//EN" "http://www.w3.org/Graphics/SVG/1.1/DTD/svg11.dtd"><svg t="1596224774040" class="icon" viewBox="0 0 1024 1024" version="1.1" xmlns="http://www.w3.org/2000/svg" p-id="1764" xmlns:xlink="http://www.w3.org/1999/xlink" width="24" height="24"><defs><style type="text/css"></style></defs><path d="M512.5 65C266.39 65 65 239.962 65 458.5l0.02 3.822c1.3 119.663 63.593 229.584 166.551 302.587l2.117 1.487-15.536 123.648c-4.13 32.878 19.174 62.88 52.052 67.012l0.607 0.073a60 60 0 0 0 47.688-15.626l104.851-97.307 1.823 0.32c28.553 4.962 57.76 7.484 87.327 7.484C758.61 852 960 677.038 960 458.5S758.61 65 512.5 65z m0 72C720.92 137 888 282.154 888 458.5S720.92 780 512.5 780c-29.973 0-59.461-3.008-88.054-8.9l-3.193-0.67-19.687-4.246-107.863 100.101 17.062-135.786-22.047-13.903c-0.569-0.361-1.041-0.663-1.414-0.903C193.068 655.055 137 560.5 137 458.5 137 282.154 304.08 137 512.5 137z" fill="#474747" p-id="1765"></path><path d="M300.795 389.917c-6.58 62.6 13.922 124.716 57.215 176.261 11.689 13.918 24.918 26.898 39.491 38.731l2.317 1.861 2.141 1.691-54.433 69.145-2.65-2.094c-0.406-0.323-0.766-0.61-1.08-0.863-19.573-15.706-37.393-33.088-53.171-51.874-57.651-68.64-85.932-153.267-77.611-239.444l87.781 6.586z" fill="#1B69FD" p-id="1766"></path></svg>