<?xml version="1.0" standalone="no"?><!DOCTYPE svg PUBLIC "-//W3C//DTD SVG 1.1//EN" "http://www.w3.org/Graphics/SVG/1.1/DTD/svg11.dtd"><svg t="1595671082128" class="icon" viewBox="0 0 1061 1024" version="1.1" xmlns="http://www.w3.org/2000/svg" p-id="23451" xmlns:xlink="http://www.w3.org/1999/xlink" width="24.8671875" height="24"><defs><style type="text/css"></style></defs><path d="M403.863406 773.558857a33.133714 33.133714 0 0 1-15.945143 28.525714 30.976 30.976 0 0 1-31.817143 0 33.133714 33.133714 0 0 1-15.945143-28.525714v-179.785143a111.652571 111.652571 0 0 1 29.549714-75.337143 97.682286 97.682286 0 0 1 71.058286-31.012571h182.308572a98.596571 98.596571 0 0 1 71.094857 31.012571 111.177143 111.177143 0 0 1 29.074285 75.337143v286.171429a127.707429 127.707429 0 0 1-33.682285 87.259428 113.152 113.152 0 0 1-82.176 36.242286H284.311406a132.717714 132.717714 0 0 1-97.389715-42.934857 149.504 149.504 0 0 1-40.155428-102.985143v-348.635428H31.858834a31.341714 31.341714 0 0 1-22.674285-9.801143 33.499429 33.499429 0 0 1-9.142858-23.588572 34.267429 34.267429 0 0 1 12.873143-27.172571L513.211977 8.118857a30.646857 30.646857 0 0 1 41.545143 0l495.250286 440.685714a34.084571 34.084571 0 0 1 9.874285 36.937143 32.402286 32.402286 0 0 1-30.171428 22.198857h-112.64V911.36a91.318857 91.318857 0 0 1-24.905143 66.779429 81.810286 81.810286 0 0 1-59.538286 26.221714h-8.301714a31.378286 31.378286 0 0 1-22.564571-10.130286 33.536 33.536 0 0 1-8.850286-23.734857 33.499429 33.499429 0 0 1 9.033143-23.405714 31.378286 31.378286 0 0 1 22.381714-9.984h8.301714c5.595429 0.036571 10.971429-2.377143 14.774857-6.656a24.246857 24.246857 0 0 0 6.436572-15.725715V475.501714a33.536 33.536 0 0 1 8.850286-23.734857 31.378286 31.378286 0 0 1 22.564571-10.130286h57.673143l-409.380572-363.885714-415.378285 363.885714h58.148571a31.378286 31.378286 0 0 1 22.564572 10.130286 33.536 33.536 0 0 1 8.813714 23.734857v381.549715a79.067429 79.067429 0 0 0 22.162286 55.296c13.568 14.811429 32.402286 23.259429 52.150857 23.405714h323.072a51.821714 51.821714 0 0 0 37.376-16.713143c10.166857-10.496 15.835429-24.758857 15.725714-39.570286v-286.171428a39.277714 39.277714 0 0 0-11.081143-27.648 34.56 34.56 0 0 0-25.856-11.446857h-180.48c-9.874286 0-19.382857 4.132571-26.294857 11.446857a40.777143 40.777143 0 0 0-10.605714 27.648v180.260571z" p-id="23452" fill="#19be6b"></path></svg>