<?xml version="1.0" standalone="no"?><!DOCTYPE svg PUBLIC "-//W3C//DTD SVG 1.1//EN" "http://www.w3.org/Graphics/SVG/1.1/DTD/svg11.dtd"><svg t="1595679792914" class="icon" viewBox="0 0 1024 1024" version="1.1" xmlns="http://www.w3.org/2000/svg" p-id="1172" xmlns:xlink="http://www.w3.org/1999/xlink" width="24" height="24"><defs><style type="text/css"></style></defs><path d="M276.4 862h-100c-38.6 0-70-31.4-70-70V552c0-38.6 31.4-70 70-70h100c38.6 0 70 31.4 70 70v240c0 38.6-31.4 70-70 70z m-100-320c-5.5 0-10 4.5-10 10v240c0 5.5 4.5 10 10 10h100c5.5 0 10-4.5 10-10V552c0-5.5-4.5-10-10-10h-100zM562 862H462c-38.6 0-70-31.4-70-70V392c0-38.6 31.4-70 70-70h100c38.6 0 70 31.4 70 70v400c0 38.6-31.4 70-70 70zM462 382c-5.5 0-10 4.5-10 10v400c0 5.5 4.5 10 10 10h100c5.5 0 10-4.5 10-10V392c0-5.5-4.5-10-10-10H462zM847.6 862h-100c-38.6 0-70-31.4-70-70V232c0-38.6 31.4-70 70-70h100c38.6 0 70 31.4 70 70v560c0 38.6-31.4 70-70 70z m-100-640c-5.5 0-10 4.5-10 10v560c0 5.5 4.5 10 10 10h100c5.5 0 10-4.5 10-10V232c0-5.5-4.5-10-10-10h-100z" fill="#1890FF" p-id="1173"></path></svg>