<?xml version="1.0" standalone="no"?><!DOCTYPE svg PUBLIC "-//W3C//DTD SVG 1.1//EN" "http://www.w3.org/Graphics/SVG/1.1/DTD/svg11.dtd"><svg t="1598767504050" class="icon" viewBox="0 0 1024 1024" version="1.1" xmlns="http://www.w3.org/2000/svg" p-id="45877" xmlns:xlink="http://www.w3.org/1999/xlink" width="24" height="24"><defs><style type="text/css"></style></defs><path d="M699.68 673.24c-1.4-8.74-9.67-14.63-18.41-13.24h-335.6c-6.83 1.14-12.15 6.46-13.24 13.24-1.45 8.74 4.5 17.01 13.24 18.41h335.6c1.76 0.31 3.52 0.31 5.22 0 8.74-1.4 14.64-9.67 13.19-18.41zM699.68 348.8c-1.4-8.74-9.67-14.69-18.41-13.24h-335.6c-6.83 1.14-12.15 6.41-13.24 13.24-1.45 8.74 4.5 16.96 13.24 18.41h335.6c1.76 0.31 3.52 0.31 5.22 0 8.74-1.44 14.64-9.67 13.19-18.41zM699.68 592.15c-1.4-8.74-9.67-14.69-18.41-13.24h-335.6a15.919 15.919 0 0 0-13.24 13.24c-1.45 8.74 4.5 16.96 13.24 18.41h335.6c1.76 0.26 3.52 0.26 5.22 0 8.74-1.44 14.64-9.67 13.19-18.41z" p-id="45878"></path><path d="M674.75 72.21c-3-3.1-7.19-4.86-11.53-4.86H243.44v-0.1c-41.73 0.05-75.55 33.87-75.6 75.65v741.06c0.05 41.73 33.87 75.55 75.6 75.6h535c41.73-0.05 75.55-33.87 75.65-75.6V251.49L674.75 72.21z m4.56 50l124.98 124.98h-91.37c-18.51-0.1-33.51-15.1-33.61-33.66v-91.32z m147.63 761.75c-0.1 23.94-19.49 43.33-43.44 43.44H243.44c-23.94-0.1-43.33-19.49-43.44-43.44V142.89c0.1-23.99 19.49-43.39 43.44-43.49h403.65v113.61c0.1 36.3 29.53 65.78 65.83 65.83h114.02v605.12z" p-id="45879"></path><path d="M712.92 278.84c-36.3-0.05-65.72-29.53-65.83-65.83V99.4H243.44c-23.94 0.1-43.33 19.49-43.44 43.49v741.06c0.1 23.94 19.49 43.33 43.44 43.44H783.5c23.94-0.1 43.33-19.49 43.44-43.44V278.84H712.92z m-26.43 412.81c-1.71 0.31-3.46 0.31-5.22 0h-335.6c-8.74-1.4-14.69-9.67-13.24-18.41 1.09-6.77 6.41-12.1 13.24-13.24h335.6c8.74-1.4 17.01 4.5 18.41 13.24 1.45 8.74-4.45 17.01-13.19 18.41z m0-81.09c-1.71 0.26-3.46 0.26-5.22 0h-335.6c-8.74-1.45-14.69-9.67-13.24-18.41a15.919 15.919 0 0 1 13.24-13.24h335.6c8.74-1.45 17.01 4.5 18.41 13.24 1.45 8.74-4.45 16.97-13.19 18.41z m0-81.13c-1.71 0.31-3.46 0.31-5.22 0h-335.6c-8.74-1.45-14.69-9.67-13.24-18.41 1.09-6.77 6.41-12.1 13.24-13.24h335.6c8.74-1.4 17.01 4.5 18.41 13.24 1.45 8.74-4.45 16.96-13.19 18.41z m0-81.08c-1.71 0.26-3.46 0.26-5.22 0h-335.6c-8.74 1.4-17.01-4.5-18.41-13.24-1.45-8.74 4.5-17.01 13.24-18.41 1.71-0.31 3.46-0.31 5.17 0h335.6c8.74-1.45 17.01 4.5 18.41 13.24 1.45 8.69-4.45 16.96-13.19 18.41z m0-81.14c-1.71 0.31-3.46 0.31-5.22 0h-335.6c-8.74-1.45-14.69-9.67-13.24-18.41 1.09-6.83 6.41-12.1 13.24-13.24h335.6c8.74-1.45 17.01 4.5 18.41 13.24 1.45 8.74-4.45 16.97-13.19 18.41z" fill="#FFEA8F" p-id="45880"></path><path d="M804.29 247.19h-91.37c-18.51-0.1-33.51-15.1-33.61-33.66v-91.32l124.98 124.98z" fill="#ED8D22" p-id="45881"></path><path d="M699.68 429.94c-1.4-8.74-9.67-14.69-18.41-13.24h-335.6c-1.71-0.31-3.46-0.31-5.17 0-8.74 1.4-14.69 9.67-13.24 18.41 1.4 8.74 9.67 14.63 18.41 13.24h335.6c1.76 0.26 3.52 0.26 5.22 0 8.74-1.45 14.64-9.72 13.19-18.41zM699.68 511.02c-1.4-8.74-9.67-14.63-18.41-13.24h-335.6c-6.83 1.14-12.15 6.46-13.24 13.24-1.45 8.74 4.5 16.96 13.24 18.41h335.6c1.76 0.31 3.52 0.31 5.22 0 8.74-1.45 14.64-9.67 13.19-18.41z" p-id="45882"></path></svg>