<?xml version="1.0" standalone="no"?><!DOCTYPE svg PUBLIC "-//W3C//DTD SVG 1.1//EN" "http://www.w3.org/Graphics/SVG/1.1/DTD/svg11.dtd"><svg t="1595454964265" class="icon" viewBox="0 0 1024 1024" version="1.1" xmlns="http://www.w3.org/2000/svg" p-id="2302" xmlns:xlink="http://www.w3.org/1999/xlink" width="24" height="24"><defs><style type="text/css"></style></defs><path d="M507.5 393.9h-298c-19.8 0-35.9 16.3-35.9 36.1 0 19.9 16.2 36.1 35.9 36.1h226.1l71.9-72.2zM364.8 555.5H203.6c-19.8 0-35.9 16.3-35.9 36.1 0 19.9 16.2 36.1 35.9 36.1h124.6l36.6-72.2zM167.6 753.2c0 19.9 16.2 36.1 35.9 36.1h46.9c0.5-5.2 1.7-10.3 3.6-15.3 0.4-0.9 0.8-1.9 1.3-2.8l27.5-54.2h-79.3c-19.7 0.1-35.9 16.4-35.9 36.2zM657 753.2c0-17.8-12.9-32.6-29.8-35.6-4.2 3.7-8.9 6.6-14 8.8L490 789.3h131c19.8 0.1 36-16.2 36-36.1zM935.5 288.5l-102-102.8-0.1-0.1c-13.2-13.3-30.5-20.8-48.8-21.3-7.8-0.2-15.3 0.9-22.3 3.2-9.6 3.1-18.3 8.4-25.5 15.7l-17.4 17.5-192 193.1-71.9 72.3-46.5 46.8c-4.8 4.8-8.6 10.4-11.2 16.7l-13.1 25.9-36.7 72.3-45.3 89.3-27.5 54.2c-0.5 1-0.9 1.9-1.3 2.8-2 5-3.2 10.2-3.6 15.3-1.6 17 4.5 34.1 17.5 47.1 16.9 17 40.7 22.4 62.1 14 0.9-0.4 1.9-0.8 2.8-1.3L470 789.3l123.2-62.9c5.1-2.2 9.8-5.2 14-8.8 0.9-0.8 1.8-1.6 2.7-2.5l109.4-110 42.9-43.2 175.4-176.3c26.2-26.1 25.1-69.6-2.1-97.1zM575.2 687.3s-0.1 0-0.1 0.1c-0.7 0.3-1.3 0.6-1.9 0.9l-56.6 28.9L375 789.5l-42.2 21.6c-0.1 0-0.2 0.1-0.3 0.1-7.7 2.7-13.3-1.7-15.4-3.8-2.1-2.1-6.5-7.7-3.8-15.5 0-0.1 0.1-0.2 0.1-0.3l1.1-2.1 36.6-72.3 45.3-89.3 36.6-72.3 2.8-5.5c0.3-0.6 0.6-1.3 0.9-1.9 0.6-1.3 2.3-1.7 3.3-0.6l8 8.1 71.9 72.3 55.8 56.1c1.1 0.8 0.8 2.6-0.5 3.2z m262.3-262.4l-75.1 75.5-42.9 43.2-109.6 110.1c-0.8 0.8-2.1 0.8-2.9 0l-25.8-26-71.9-72.3-39.3-39.3c-0.8-0.8-0.8-2.1 0-2.9l46.7-47 71.9-72.3 109-109.5c0.8-0.8 2.1-0.8 2.9 0l18.9 19 42.9 43.2 75.1 75.5c0.9 0.7 0.9 2 0.1 2.8z m69.7-70.1L871 391.2c-0.8 0.8-2.1 0.8-2.9 0L762.4 285l-31.3-31.4c-0.8-0.8-0.8-2.1 0-2.9l31.3-31.4 5.1-5.1c4.8-4.8 11.3-7.4 18.3-7.2 7 0.2 13.6 3.1 18.6 8.1l102 102.8c10.3 10.4 10.7 27 0.8 36.9z" p-id="2303"></path><path d="M741.7 622.7h-1.5c-10.3 0-18.8 7.6-20.4 17.5-0.2 0.5-0.3 1-0.3 1.5V884.3c0 17.9-14.3 32.5-31.9 32.5H137.1c-17.6 0-31.9-14.6-31.9-32.5V359.1c0-8.3 6.7-15 14.9-15h200.6c21.6 0 39.2-17.2 39.2-38.4V123.5c0-8.3 6.7-15 14.9-15h312.9c18.9 0 34 16.9 31.7 36.6 0 8.9 7.4 16.1 16.2 16.1h10.7c8.9 0 16-7.2 16-16.1h0.1c2.3-43.9-32.2-80.3-74.8-80.3h-361v0.5c-11.7-1.8-23.6 1.7-32.7 10L74.5 278c-9.5 8.8-13.8 21.4-11.8 33.7h-0.5v572.6c0 42 33.6 76.2 74.9 76.2h550.5c41.3 0 74.9-34.2 74.9-76.2V641.8c0-0.5-0.1-1-0.3-1.5-1.7-10-10.2-17.6-20.5-17.6zM95.8 308c-0.6-1.4-1.1-4 1.4-6.3L316.7 99c1.3-1.2 2.7-1.6 3.9-1.6 1 0 1.9 0.3 2.5 0.5 1.3 0.6 3.6 2 3.6 5.3v202.5c0 3.2-2.7 5.9-6 5.9H101.3c-3.5 0-4.9-2.2-5.5-3.6z" p-id="2304"></path></svg>