<svg xmlns="http://www.w3.org/2000/svg" viewBox="0 0 346.87 528"><path d="M31.87 360c0-76.22 63.8-138 142.5-138s142.5 61.78 142.5 138-63.8 138-142.5 138" fill="none" stroke="#02a6f8" stroke-miterlimit="10" stroke-width="60"></path><path fill="#02a6f8" d="M61.87 528H1.86V354l60.01 5.8V528zM179.14 528h-60V347l60-1v182zM0 60V0h176.12l1.16 60H0z"></path><path fill="#02a6f8" d="M60.5 100H0V2.5h60.5z"></path><circle cx="31.37" cy="165.5" r="29.5" fill="#02a6f8"></circle><path d="M174.87 30c53 0 96 32.31 96 96a96 96 0 0 1-96 96" fill="none" stroke="#02a6f8" stroke-miterlimit="10" stroke-width="60"></path><path d="M179.57 296.13c-32.58 0-60.42 24.24-60.42 53h60z" fill="#02a6f8"></path><svg xmlns="http://www.w3.org/2000/svg" viewBox="0 0 346.87 528"><path d="M31.87 360c0-76.22 63.8-138 142.5-138s142.5 61.78 142.5 138-63.8 138-142.5 138" fill="none" stroke="#02a6f8" stroke-miterlimit="10" stroke-width="60"></path><path fill="#02a6f8" d="M61.87 528H1.86V354l60.01 5.8V528zM179.14 528h-60V347l60-1v182zM0 60V0h176.12l1.16 60H0z"></path><path fill="#02a6f8" d="M60.5 100H0V2.5h60.5z"></path><circle cx="31.37" cy="165.5" r="29.5" fill="#02a6f8"></circle><path d="M174.87 30c53 0 96 32.31 96 96a96 96 0 0 1-96 96" fill="none" stroke="#02a6f8" stroke-miterlimit="10" stroke-width="60"></path><path d="M179.57 296.13c-32.58 0-60.42 24.24-60.42 53h60z" fill="#02a6f8"></path></svg></svg>