<?xml version="1.0" standalone="no"?><!DOCTYPE svg PUBLIC "-//W3C//DTD SVG 1.1//EN" "http://www.w3.org/Graphics/SVG/1.1/DTD/svg11.dtd"><svg t="1594839014162" class="icon" viewBox="0 0 1024 1024" version="1.1" xmlns="http://www.w3.org/2000/svg" p-id="16214" xmlns:xlink="http://www.w3.org/1999/xlink" width="500" height="500"><defs><style type="text/css"></style></defs><path d="M512 929.959184c-230.4 0-417.959184-187.559184-417.959184-417.959184s187.559184-417.959184 417.959184-417.959184 417.959184 187.559184 417.959184 417.959184-187.559184 417.959184-417.959184 417.959184z m0-794.122449c-207.412245 0-376.163265 168.75102-376.163265 376.163265s168.75102 376.163265 376.163265 376.163265 376.163265-168.75102 376.163265-376.163265-168.75102-376.163265-376.163265-376.163265z" p-id="16215" fill="#cdcdcd"></path><path d="M512 690.677551m-31.346939 0a31.346939 31.346939 0 1 0 62.693878 0 31.346939 31.346939 0 1 0-62.693878 0Z" p-id="16216" fill="#cdcdcd"></path><path d="M512 584.097959c-11.493878 0-20.897959-9.404082-20.897959-20.897959v-261.22449c0-11.493878 9.404082-20.897959 20.897959-20.897959s20.897959 9.404082 20.897959 20.897959v261.22449c0 12.016327-9.404082 20.897959-20.897959 20.897959z" p-id="16217" fill="#cdcdcd"></path></svg>