<?xml version="1.0" standalone="no"?><!DOCTYPE svg PUBLIC "-//W3C//DTD SVG 1.1//EN" "http://www.w3.org/Graphics/SVG/1.1/DTD/svg11.dtd"><svg t="1595293399539" class="icon" viewBox="0 0 1024 1024" version="1.1" xmlns="http://www.w3.org/2000/svg" p-id="30333" xmlns:xlink="http://www.w3.org/1999/xlink" width="24" height="24"><defs><style type="text/css"></style></defs><path d="M645.6 893.6H269.9c-48.8 0-88.5-39.7-88.5-88.5V248.8c0-48.8 39.7-88.5 88.5-88.5h480.5c48.8 0 88.5 39.7 88.5 88.5v431.8l-193.3 213zM269.9 210.9c-20.9 0-37.9 17-37.9 37.9v556.3c0 20.9 17 37.9 37.9 37.9h353.3l165.1-182V248.8c0-20.9-17-37.9-37.9-37.9H269.9z" fill="#2c2c2c" p-id="30334"></path><path d="M623.9 387.9H333.1c-14 0-25.3-11.3-25.3-25.3s11.3-25.3 25.3-25.3h290.8c14 0 25.3 11.3 25.3 25.3s-11.3 25.3-25.3 25.3zM623.9 514.3H333.1c-14 0-25.3-11.3-25.3-25.3s11.3-25.3 25.3-25.3h290.8c14 0 25.3 11.3 25.3 25.3s-11.3 25.3-25.3 25.3zM497.5 640.8H333.1c-14 0-25.3-11.3-25.3-25.3s11.3-25.3 25.3-25.3h164.4c14 0 25.3 11.3 25.3 25.3s-11.4 25.3-25.3 25.3zM535.4 817.8H371c-7 0-12.6-5.7-12.6-12.6 0-7 5.7-12.6 12.6-12.6h164.4c7 0 12.6 5.7 12.6 12.6 0 6.9-5.6 12.6-12.6 12.6z" fill="#2c2c2c" p-id="30335"></path><path d="M320.4 805.1m-12.6 0a12.6 12.6 0 1 0 25.2 0 12.6 12.6 0 1 0-25.2 0Z" fill="#2c2c2c" p-id="30336"></path><path d="M640.7 863.7c-3.7 0-7.5-0.7-11.1-2.2-10.9-4.5-17.9-15-17.9-26.7l-0.4-147.7c0-12.4 4.8-24 13.5-32.8 8.7-8.7 20.3-13.5 32.6-13.5h0.2l129.7 0.4c14.8 0 28 8.9 33.6 22.5 5.6 13.7 2.5 29.2-7.9 39.7L661.2 855.2c-5.5 5.5-12.9 8.5-20.5 8.5z m21.2-172.3l0.3 91.3 91-91-91.3-0.3z" fill="#2c2c2c" p-id="30337"></path></svg>