<?xml version="1.0" standalone="no"?><!DOCTYPE svg PUBLIC "-//W3C//DTD SVG 1.1//EN" "http://www.w3.org/Graphics/SVG/1.1/DTD/svg11.dtd"><svg t="1594533965027" class="icon" viewBox="0 0 1024 1024" version="1.1" xmlns="http://www.w3.org/2000/svg" p-id="12962" xmlns:xlink="http://www.w3.org/1999/xlink" width="500" height="500"><defs><style type="text/css"></style></defs><path d="M896 448a128 128 0 0 1-128 128H281.6a153.6 153.6 0 0 1 0-307.2c2.304 0 4.352 0.256 6.656 0.256A204.5952 204.5952 0 0 1 667.904 225.28 89.4464 89.4464 0 0 1 793.6 307.2a97.28 97.28 0 0 1-1.536 15.104A128.256 128.256 0 0 1 896 448z" fill="#80CEFF" p-id="12963"></path><path d="M493.056 652.8s89.6 116.992 89.6 166.4a89.6 89.6 0 0 1-179.2 0c0-49.408 89.6-166.4 89.6-166.4z" fill="#4198FF" p-id="12964"></path></svg>