<?xml version="1.0" standalone="no"?><!DOCTYPE svg PUBLIC "-//W3C//DTD SVG 1.1//EN" "http://www.w3.org/Graphics/SVG/1.1/DTD/svg11.dtd"><svg t="1594533909422" class="icon" viewBox="0 0 1024 1024" version="1.1" xmlns="http://www.w3.org/2000/svg" p-id="10085" xmlns:xlink="http://www.w3.org/1999/xlink" width="500" height="500"><defs><style type="text/css"></style></defs><path d="M896 448a128 128 0 0 1-128 128H281.6a153.6 153.6 0 0 1 0-307.2c2.304 0 4.352 0.256 6.656 0.256A204.5952 204.5952 0 0 1 667.904 225.28 89.4464 89.4464 0 0 1 793.6 307.2a97.28 97.28 0 0 1-1.536 15.104A128.256 128.256 0 0 1 896 448z" fill="#ADD1EB" p-id="10086"></path><path d="M499.456 370.944H742.4l-226.048 180.48h146.176l-157.696 136.96H588.8L281.856 908.8l128.256-166.144H353.28l87.296-141.312h-74.752s132.608-230.4 133.632-230.4z" fill="#FFA800" p-id="10087"></path></svg>