<?xml version="1.0" standalone="no"?><!DOCTYPE svg PUBLIC "-//W3C//DTD SVG 1.1//EN" "http://www.w3.org/Graphics/SVG/1.1/DTD/svg11.dtd"><svg t="1594533945671" class="icon" viewBox="0 0 1024 1024" version="1.1" xmlns="http://www.w3.org/2000/svg" p-id="11811" xmlns:xlink="http://www.w3.org/1999/xlink" width="500" height="500"><defs><style type="text/css"></style></defs><path d="M511.36 936.832a425.1136 425.1136 0 0 1-424.192-399.36 340.0704 340.0704 0 0 0 450.304-450.304 425.216 425.216 0 0 1-26.112 849.664z" fill="#FFBA35" opacity=".13" p-id="11812"></path><path d="M503.936 851.84a332.8 332.8 0 0 1-306.944-209.408 359.9872 359.9872 0 0 0 85.248 10.752 364.6464 364.6464 0 0 0 360.448-368.896 379.0848 379.0848 0 0 0-10.752-87.296 341.0176 341.0176 0 0 1 204.544 314.368 336.5632 336.5632 0 0 1-332.544 340.48z" fill="#FFA800" p-id="11813"></path><path d="M386.432 245.632h-38.4v64a12.8 12.8 0 0 1-25.6 0v-64h-38.4a12.8 12.8 0 0 1 0-25.6h38.4v-38.4a12.8 12.8 0 0 1 25.6 0v38.4h38.4a12.8 12.8 0 0 1 0 25.6zM258.432 373.632h-12.8v38.4a12.8 12.8 0 0 1-25.6 0v-38.4h-12.8a12.8 12.8 0 0 1 0-25.6h12.8v-12.8a12.8 12.8 0 0 1 25.6 0v12.8h12.8a12.8 12.8 0 0 1 0 25.6z" fill="#FFBA35" p-id="11814"></path></svg>