<?xml version="1.0" standalone="no"?><!DOCTYPE svg PUBLIC "-//W3C//DTD SVG 1.1//EN" "http://www.w3.org/Graphics/SVG/1.1/DTD/svg11.dtd"><svg t="1594533914541" class="icon" viewBox="0 0 1024 1024" version="1.1" xmlns="http://www.w3.org/2000/svg" p-id="10375" xmlns:xlink="http://www.w3.org/1999/xlink" width="500" height="500"><defs><style type="text/css"></style></defs><path d="M896 448.384a128 128 0 0 1-128 128H281.6a153.6 153.6 0 0 1 0-307.2c2.304 0 4.352 0.256 6.656 0.256a204.5952 204.5952 0 0 1 379.648-43.776 89.4464 89.4464 0 0 1 125.696 81.92 97.28 97.28 0 0 1-1.536 15.104 128.256 128.256 0 0 1 103.936 125.696z" fill="#80CEFF" p-id="10376"></path><path d="M522.24 605.056s40.96 93.696 32 127.744a64 64 0 1 1-123.648-33.024c9.216-34.048 91.648-94.72 91.648-94.72z" fill="#4198FF" p-id="10377"></path><path d="M240.64 605.056s41.216 93.696 32 127.744a63.872 63.872 0 1 1-123.392-33.024c8.96-34.048 91.392-94.72 91.392-94.72z" fill="#4198FF" p-id="10378"></path><path d="M803.584 605.056s41.216 93.696 32 127.744a64 64 0 1 1-123.648-33.024c9.216-34.048 91.648-94.72 91.648-94.72z" fill="#4198FF" p-id="10379"></path><path d="M368.64 733.056s41.216 93.696 32 127.744a64 64 0 1 1-123.648-33.024c9.216-34.048 91.648-94.72 91.648-94.72zM650.24 733.056s40.96 93.696 31.744 127.744a63.872 63.872 0 1 1-123.392-33.024c8.96-34.048 91.648-94.72 91.648-94.72z" fill="#4198FF" p-id="10380"></path></svg>