<?xml version="1.0" standalone="no"?><!DOCTYPE svg PUBLIC "-//W3C//DTD SVG 1.1//EN" "http://www.w3.org/Graphics/SVG/1.1/DTD/svg11.dtd"><svg t="1594533918896" class="icon" viewBox="0 0 1024 1024" version="1.1" xmlns="http://www.w3.org/2000/svg" p-id="10667" xmlns:xlink="http://www.w3.org/1999/xlink" width="500" height="500"><defs><style type="text/css"></style></defs><path d="M473.6 870.4a152.5248 152.5248 0 0 1-104.96-41.472 38.4 38.4 0 0 1 52.48-56.064A76.8 76.8 0 1 0 473.6 640H204.8a38.4 38.4 0 0 1 0-76.8h268.8a153.6 153.6 0 0 1 0 307.2z m25.6-716.8a152.5248 152.5248 0 0 0-104.96 41.472 38.4 38.4 0 0 0 52.48 56.064A76.8 76.8 0 1 1 499.2 384H102.4a38.4 38.4 0 0 0 0 76.8h396.8a153.6 153.6 0 0 0 0-307.2z" fill="#A6977B" p-id="10668"></path><path d="M883.2 524.8A38.4 38.4 0 1 0 921.6 486.4a38.4 38.4 0 0 0-38.4 38.4z m0 204.8A38.4 38.4 0 1 0 921.6 691.2a38.4 38.4 0 0 0-38.4 38.4z m0.256-409.6a38.4 38.4 0 1 0 38.4-38.4 38.4 38.4 0 0 0-38.4 38.4zM755.2 358.4a51.2 51.2 0 1 1-51.2 51.2 51.3536 51.3536 0 0 1 51.2-51.2z m0 204.8a51.2 51.2 0 1 1-51.2 51.2 51.3536 51.3536 0 0 1 51.2-51.2z m0-409.6a51.2 51.2 0 1 1-51.2 51.2 51.3536 51.3536 0 0 1 51.2-51.2z m0 614.4a51.2 51.2 0 1 1-51.2 51.2 51.3536 51.3536 0 0 1 51.2-51.2z" fill="#C3B59F" p-id="10669"></path></svg>