<?xml version="1.0" standalone="no"?><!DOCTYPE svg PUBLIC "-//W3C//DTD SVG 1.1//EN" "http://www.w3.org/Graphics/SVG/1.1/DTD/svg11.dtd"><svg t="1594533967702" class="icon" viewBox="0 0 1024 1024" version="1.1" xmlns="http://www.w3.org/2000/svg" p-id="13105" xmlns:xlink="http://www.w3.org/1999/xlink" width="500" height="500"><defs><style type="text/css"></style></defs><path d="M140.8 793.6h742.4a38.4 38.4 0 0 1 0 76.8h-742.4a38.4 38.4 0 0 1 0-76.8z m512-153.6h230.4a38.4 38.4 0 0 1 0 76.8h-230.4a38.4 38.4 0 0 1 0-76.8z m-512 0h384a38.4 38.4 0 0 1 0 76.8h-384a38.4 38.4 0 0 1 0-76.8z" fill="#A6977B" p-id="13106"></path><path d="M153.6 192A38.4 38.4 0 1 0 192 153.6 38.4 38.4 0 0 0 153.6 192z m640 0A38.4 38.4 0 1 0 832 153.6 38.4 38.4 0 0 0 793.6 192z m-639.744 332.8a38.4 38.4 0 1 0 38.4-38.4 38.4 38.4 0 0 0-38.4 38.4zM832 486.4a38.4 38.4 0 1 1-38.4 38.4 38.4 38.4 0 0 1 38.4-38.4zM512 153.6a51.2 51.2 0 1 1-51.2 51.2 51.3536 51.3536 0 0 1 51.2-51.2z m0 307.2a51.2 51.2 0 1 1-51.2 51.2 51.3536 51.3536 0 0 1 51.2-51.2z m-179.2-153.6a51.2 51.2 0 1 1-51.2 51.2 51.3536 51.3536 0 0 1 51.2-51.2z m358.4 0a51.2 51.2 0 1 1-51.2 51.2 51.3536 51.3536 0 0 1 51.2-51.2z" fill="#C3B59F" p-id="13107"></path></svg>