<?xml version="1.0" standalone="no"?><!DOCTYPE svg PUBLIC "-//W3C//DTD SVG 1.1//EN" "http://www.w3.org/Graphics/SVG/1.1/DTD/svg11.dtd"><svg t="1594533926729" class="icon" viewBox="0 0 1024 1024" version="1.1" xmlns="http://www.w3.org/2000/svg" p-id="11092" xmlns:xlink="http://www.w3.org/1999/xlink" width="500" height="500"><defs><style type="text/css"></style></defs><path d="M972.8 678.4a166.4 166.4 0 0 1-166.4 166.4h-563.2c-5.632 0-11.52-0.256-16.896-0.768a192 192 0 0 1-19.712-379.648A270.6688 270.6688 0 0 1 204.8 435.2a256 256 0 0 1 503.04-66.304A112.64 112.64 0 0 1 755.2 358.4a115.0464 115.0464 0 0 1 115.2 115.2 113.408 113.408 0 0 1-10.496 47.36A166.4 166.4 0 0 1 972.8 678.4z" fill="#BAC9DF" p-id="11093"></path></svg>