<?xml version="1.0" standalone="no"?><!DOCTYPE svg PUBLIC "-//W3C//DTD SVG 1.1//EN" "http://www.w3.org/Graphics/SVG/1.1/DTD/svg11.dtd"><svg t="1600882430113" class="icon" viewBox="0 0 1024 1024" version="1.1" xmlns="http://www.w3.org/2000/svg" p-id="11666" xmlns:xlink="http://www.w3.org/1999/xlink" width="81" height="81"><defs><style type="text/css"></style></defs><path d="M335.644444 324.266667c22.755556 0 42.666667 2.844444 62.577778 11.377777 19.911111-39.822222 51.2-73.955556 91.022222-96.711111-22.755556-71.111111-91.022222-125.155556-170.666666-125.155555C221.866667 113.777778 142.222222 193.422222 142.222222 290.133333c0 42.666667 17.066667 82.488889 42.666667 113.777778 34.133333-45.511111 88.177778-79.644444 150.755555-79.644444z" fill="#FAD105" p-id="11667"></path><path d="M881.777778 500.622222c0-133.688889-108.088889-238.933333-238.933334-238.933333-93.866667 0-173.511111 54.044444-213.333333 130.844444-19.911111-8.533333-39.822222-11.377778-62.577778-11.377777-99.555556 0-179.2 79.644444-179.2 179.2 0 96.711111 73.955556 173.511111 167.822223 179.2h312.888888c116.622222-14.222222 213.333333-116.622222 213.333334-238.933334z" fill="#D5E0F7" p-id="11668"></path><path d="M369.777778 910.222222c-17.066667 0-28.444444-11.377778-28.444445-28.444444v-56.888889c0-14.222222 11.377778-28.444444 28.444445-28.444445 14.222222 0 28.444444 11.377778 28.444444 28.444445v56.888889c0 17.066667-11.377778 28.444444-28.444444 28.444444zM512 910.222222c-17.066667 0-28.444444-11.377778-28.444444-28.444444v-56.888889c0-14.222222 11.377778-28.444444 28.444444-28.444445 14.222222 0 28.444444 11.377778 28.444444 28.444445v56.888889c0 17.066667-11.377778 28.444444-28.444444 28.444444zM654.222222 910.222222c-17.066667 0-28.444444-11.377778-28.444444-28.444444v-56.888889c0-14.222222 11.377778-28.444444 28.444444-28.444445 14.222222 0 28.444444 11.377778 28.444445 28.444445v56.888889c0 17.066667-11.377778 28.444444-28.444445 28.444444z" fill="#88CDFB" p-id="11669"></path></svg>