<?xml version="1.0" standalone="no"?><!DOCTYPE svg PUBLIC "-//W3C//DTD SVG 1.1//EN" "http://www.w3.org/Graphics/SVG/1.1/DTD/svg11.dtd"><svg t="1594533921252" class="icon" viewBox="0 0 1024 1024" version="1.1" xmlns="http://www.w3.org/2000/svg" p-id="10808" xmlns:xlink="http://www.w3.org/1999/xlink" width="500" height="500"><defs><style type="text/css"></style></defs><path d="M166.4 166.4h281.6a38.4 38.4 0 0 1 0 76.8h-281.6a38.4 38.4 0 0 1 0-76.8z m409.6 0h281.6a38.4 38.4 0 0 1 0 76.8h-281.6a38.4 38.4 0 0 1 0-76.8z m-409.6 153.6h486.4A38.4 38.4 0 0 1 691.2 358.4a38.4 38.4 0 0 1-38.4 38.4h-486.4A38.4 38.4 0 0 1 128 358.4a38.4 38.4 0 0 1 38.4-38.4z m153.6 460.8h537.6a38.4 38.4 0 0 1 0 76.8h-537.6a38.4 38.4 0 0 1 0-76.8z m460.8-460.8h76.8A38.4 38.4 0 0 1 896 358.4a38.4 38.4 0 0 1-38.4 38.4h-76.8A38.4 38.4 0 0 1 742.4 358.4a38.4 38.4 0 0 1 38.4-38.4z m-614.4 153.6h332.8a38.4 38.4 0 0 1 0 76.8h-332.8a38.4 38.4 0 0 1 0-76.8z m460.8 0h230.4a38.4 38.4 0 0 1 0 76.8h-230.4a38.4 38.4 0 0 1 0-76.8z m-153.6 153.6h384A38.4 38.4 0 0 1 896 665.6a38.4 38.4 0 0 1-38.4 38.4h-384A38.4 38.4 0 0 1 435.2 665.6a38.4 38.4 0 0 1 38.4-38.4z m-307.2 0h179.2A38.4 38.4 0 0 1 384 665.6a38.4 38.4 0 0 1-38.4 38.4h-179.2A38.4 38.4 0 0 1 128 665.6a38.4 38.4 0 0 1 38.4-38.4z m0 153.6h25.6a38.4 38.4 0 0 1 0 76.8h-25.6a38.4 38.4 0 0 1 0-76.8z" fill="#A3BCE0" p-id="10809"></path></svg>